<svg width="36" height="22" viewBox="0 0 36 22" fill="none" xmlns="http://www.w3.org/2000/svg">
    <g id="CHAINUP CUSTODY" clip-path="url(#clip0_1719_69287)">
        <g id="&#229;&#155;&#190;&#229;&#177;&#130; 2">
            <path id="Vector"
                d="M9.55184 4.42035L5.61786 2.1902L9.41748 0L13.3493 2.22793L9.55184 4.42035Z"
                fill="#011127" />
            <path id="Vector_2"
                d="M26.3517 12.571L10.3536 21.7801L0.727905 16.1836V4.9863L3.68831 3.27985L7.57824 5.51443L4.59361 7.23641V13.9357L10.3536 17.2843L22.486 10.3231L26.3517 12.571Z"
                fill="#011127" />
            <path id="Vector_3"
                d="M26.5543 17.4062L30.4751 19.6141L26.6777 21.8043L22.7569 19.5986L26.5543 17.4062Z"
                fill="#095BE8" />
            <path id="Vector_4"
                d="M10.3779 8.95387L25.7416 0L35.3651 5.59866V16.7938L32.4047 18.5024L28.517 16.2679L31.4994 14.5437V7.84656L25.7416 4.4958L14.2436 11.2018L10.3779 8.95387Z"
                fill="#095BE8" />
        </g>
    </g>
    <defs>
        <clipPath id="clip0_1719_69287">
            <rect width="36" height="22" fill="white" />
        </clipPath>
    </defs>
</svg>