<svg width="430" height="99" viewBox="0 0 430 99" fill="none" xmlns="http://www.w3.org/2000/svg">
<g clip-path="url(#clip0_591_781)">
<g clip-path="url(#clip1_591_781)">
<path d="M61.5451 62.5451C56.5031 67.5871 50.0792 71.0208 43.0858 72.4119C36.0923 73.803 28.8434 73.089 22.2557 70.3603C15.668 67.6316 10.0374 63.0107 6.07591 57.0819C2.11443 51.1531 4.39158e-07 44.1828 0 37.0523C-4.39157e-07 29.9218 2.11443 22.9515 6.07591 17.0227C10.0374 11.0939 15.668 6.47303 22.2557 3.74432C28.8434 1.01561 36.0923 0.301649 43.0858 1.69273C50.0792 3.08382 56.5031 6.51747 61.5451 11.5595L48.2889 24.8157C45.8687 22.3956 42.7852 20.7474 39.4284 20.0797C36.0715 19.412 32.592 19.7547 29.4299 21.0645C26.2678 22.3743 23.5651 24.5923 21.6636 27.4381C19.7621 30.2839 18.7472 33.6297 18.7472 37.0523C18.7472 40.4749 19.7621 43.8207 21.6636 46.6665C23.5651 49.5123 26.2678 51.7304 29.4299 53.0401C32.592 54.3499 36.0715 54.6926 39.4284 54.0249C42.7852 53.3572 45.8687 51.709 48.2889 49.2889L61.5451 62.5451Z" fill="#132544"/>
<path d="M22.2974 37.7184C27.3394 32.6764 33.7633 29.2427 40.7568 27.8516C47.7502 26.4605 54.9991 27.1745 61.5868 29.9032C68.1745 32.6319 73.8051 37.2528 77.7666 43.1816C81.7281 49.1104 83.8425 56.0807 83.8425 63.2112C83.8425 70.3417 81.7281 77.312 77.7666 83.2408C73.8051 89.1695 68.1745 93.7905 61.5868 96.5192C54.9992 99.2479 47.7502 99.9618 40.7568 98.5708C33.7633 97.1797 27.3394 93.746 22.2974 88.704L35.5537 75.4477C37.9738 77.8679 41.0573 79.5161 44.4142 80.1838C47.771 80.8515 51.2505 80.5088 54.4126 79.199C57.5747 77.8892 60.2774 75.6712 62.1789 72.8254C64.0804 69.9796 65.0953 66.6338 65.0953 63.2112C65.0953 59.7886 64.0804 56.4428 62.1789 53.597C60.2774 50.7512 57.5747 48.5331 54.4126 47.2234C51.2505 45.9136 47.771 45.5709 44.4142 46.2386C41.0573 46.9063 37.9738 48.5545 35.5537 50.9746L22.2974 37.7184Z" fill="#0075D7"/>
<path d="M113.051 46.4534C113.051 34.1905 122.028 25.5067 133.469 25.5067C142.329 25.5067 149.37 29.966 152.421 37.887H146.025C143.796 32.9584 139.454 30.2007 133.469 30.2007C124.903 30.2007 118.507 36.4201 118.507 46.4534C118.507 56.428 124.903 62.6475 133.469 62.6475C139.454 62.6475 143.796 59.8898 146.025 55.0198H152.421C149.37 62.8822 142.329 67.2827 133.469 67.2827C122.028 67.2827 113.051 58.7163 113.051 46.4534Z" fill="#132544"/>
<path d="M169.229 49.4458V66.9307H163.889V34.7773H169.229V39.9993C171.048 36.4201 174.509 34.1905 179.614 34.1905V39.7059H178.206C173.101 39.7059 169.229 41.9942 169.229 49.4458Z" fill="#132544"/>
<path d="M201.502 60.8286L211.477 34.7773H216.992L197.63 82.0686H192.114L198.451 66.5787L185.484 34.7773H191.41L201.502 60.8286Z" fill="#132544"/>
<path d="M231.219 40.7034C233.156 37.3003 237.38 34.2492 243.248 34.2492C251.873 34.2492 258.503 40.7034 258.503 50.7366C258.503 60.7112 251.873 67.4588 243.248 67.4588C237.38 67.4588 233.214 64.2904 231.219 61.0046V82.186H225.88V34.7773H231.219V40.7034ZM253.046 50.7366C253.046 43.1677 248.059 38.8845 242.133 38.8845C236.324 38.8845 231.219 43.3437 231.219 50.7953C231.219 58.3643 236.324 62.7648 242.133 62.7648C248.059 62.7648 253.046 58.3056 253.046 50.7366Z" fill="#132544"/>
<path d="M270.225 58.1296V39.1778H266.059V34.7773H270.225V26.6802H275.564V34.7773H283.955V39.1778H275.564V58.1296C275.564 61.298 276.738 62.4128 280.023 62.4128H283.955V66.9307H279.143C273.452 66.9307 270.225 64.5837 270.225 58.1296Z" fill="#132544"/>
<path d="M322.108 55.0785C322.108 61.5327 316.945 67.3414 307.615 67.3414C299.108 67.3414 292.536 62.8822 292.419 55.1372H301.22C301.455 58.4229 303.626 60.5939 307.439 60.5939C311.312 60.5939 313.6 58.5403 313.6 55.6066C313.6 46.7468 292.477 52.0861 292.536 37.2416C292.536 29.8486 298.521 25.3894 306.97 25.3894C315.36 25.3894 321.11 29.6726 321.639 37.0656H312.603C312.427 34.3665 310.256 32.2543 306.735 32.1956C303.508 32.0782 301.103 33.6625 301.103 37.0069C301.103 45.2213 322.108 40.6447 322.108 55.0785Z" fill="#0075D7"/>
<path d="M330.638 50.5606C330.638 40.41 337.209 33.8972 345.482 33.8972C350.704 33.8972 354.283 36.3615 356.22 39.0605V34.4252H364.493V66.9307H356.22V62.1781C354.283 64.9944 350.587 67.4588 345.424 67.4588C337.209 67.4588 330.638 60.7112 330.638 50.5606ZM356.22 50.678C356.22 44.5172 352.112 41.1141 347.594 41.1141C343.194 41.1141 339.028 44.3998 339.028 50.5606C339.028 56.7214 343.194 60.2418 347.594 60.2418C352.112 60.2418 356.22 56.8387 356.22 50.678Z" fill="#0075D7"/>
<path d="M376.916 66.9307V41.1727H373.219V34.4252H376.916V32.7823C376.916 24.8027 381.434 21.1062 390.587 21.3409V28.2644C386.597 28.1471 385.248 29.4379 385.248 33.0757V34.4252H390.939V41.1727H385.248V66.9307H376.916Z" fill="#0075D7"/>
<path d="M413.747 40.6447C409.816 40.6447 406.706 43.1677 406.061 47.6269H421.492C421.375 43.3437 417.972 40.6447 413.747 40.6447ZM429.179 56.7214C427.418 62.7062 422.02 67.4588 413.982 67.4588C404.535 67.4588 397.671 60.8873 397.671 50.678C397.671 40.41 404.359 33.8972 413.982 33.8972C423.37 33.8972 430 40.2926 430 49.9739C430 51.03 429.941 52.0861 429.765 53.1423H406.002C406.413 57.9536 409.699 60.6526 413.806 60.6526C417.326 60.6526 419.263 58.8923 420.319 56.7214H429.179Z" fill="#0075D7"/>
</g>
</g>
<defs>
<clipPath id="clip0_591_781">
<rect width="430" height="99" fill="white"/>
</clipPath>
<clipPath id="clip1_591_781">
<rect width="430" height="99" fill="white"/>
</clipPath>
</defs>
</svg>
