<svg width="128" height="128" viewBox="0 0 128 128" fill="none" xmlns="http://www.w3.org/2000/svg">
<path fill-rule="evenodd" clip-rule="evenodd" d="M51.3216 41.9527C39.3284 54.1291 39.3284 73.8709 51.3216 86.0473C63.3148 98.2237 82.7595 98.2237 94.7525 86.0473L117.611 109.255C92.9935 134.248 53.0806 134.248 28.4631 109.255C3.84564 84.2613 3.84564 43.7388 28.4631 18.7452C53.0806 -6.24839 92.9935 -6.24839 117.611 18.7452L94.7525 41.9527C82.7595 29.7765 63.3148 29.7765 51.3216 41.9527Z" fill="#2774CE"/>
<path d="M65.2828 77.1036L69.753 62.9419C68.0901 61.7383 67.0052 59.7651 67.0052 57.5337C67.0054 53.8672 69.9325 50.8951 73.5438 50.8951C77.1551 50.8953 80.0822 53.8674 80.0825 57.5337C80.0825 59.756 79.0061 61.7223 77.3548 62.9274L81.8278 77.1036H65.2828Z" fill="#182542"/>
</svg>
