<svg width="158" height="36" viewBox="0 0 158 36" fill="none" xmlns="http://www.w3.org/2000/svg">
<path d="M74.4408 18.174C70.7301 18.174 66.7388 15.7484 66.7388 10.4215C66.7388 5.09454 70.7483 2.66528 74.4408 2.66528C75.7275 2.66528 77.0689 3.09013 78.6581 3.99792C78.7529 4.05239 79.0226 4.23758 79.0226 4.23758L77.4224 6.47801C77.4224 6.47801 75.8405 5.44676 74.4699 5.44676C73.7948 5.42316 73.1229 5.54976 72.5031 5.81734C71.8833 6.08493 71.3312 6.48677 70.8868 6.99364C70.0921 7.95581 69.667 9.16834 69.6876 10.4142C69.6876 12.8035 71.1857 15.378 74.4699 15.378C75.3983 15.3972 76.3082 15.1184 77.0652 14.5828C77.2037 14.4811 77.4297 14.3359 77.4297 14.3359L79.0335 16.5763L78.6909 16.8305C77.47 17.7492 75.97 18.2233 74.4408 18.174Z" fill="#011127"/>
<path d="M84.4392 13.6387H81.6216V17.8654H84.4392V13.6387Z" fill="#011127"/>
<path d="M91.1133 2.9776V9.09976H84.4392V2.9776H81.6216V11.7433H83.1926H84.4392H91.1133V17.8618H93.9309V2.9776H91.1133Z" fill="#011127"/>
<path d="M110.286 17.8617L103.069 2.77057L95.8555 17.8617H98.8371L103.069 8.98351L104.983 13.1666H102.65L101.345 15.821H106.295L107.305 17.8617H110.286Z" fill="#011127"/>
<path d="M115.142 2.9776H112.324V17.8618H115.142V2.9776Z" fill="#011127"/>
<path d="M152.689 2.9776H147.707V5.64288H152.689C152.984 5.63001 153.279 5.6784 153.554 5.78498C153.829 5.89156 154.079 6.05399 154.288 6.26196C154.496 6.46993 154.66 6.71889 154.767 6.99301C154.874 7.26714 154.922 7.56043 154.909 7.85427C154.918 8.41083 154.721 8.95112 154.355 9.3721C154.143 9.59917 153.885 9.77804 153.597 9.89649C153.31 10.0149 153 10.0702 152.689 10.0584H149.843H147.707V17.8945H150.528V12.7091H152.664C152.937 12.7091 153.149 12.7091 153.309 12.6874C154.541 12.6189 155.698 12.0761 156.536 11.1737C157.374 10.2712 157.827 9.07964 157.8 7.85063C157.8 5.50853 156.203 2.9776 152.689 2.9776Z" fill="#095BE8"/>
<path d="M144.623 2.9776H142.232V3.38429C142.232 3.38429 142.232 3.38429 142.232 3.40608V11.6379C142.232 13.8639 140.548 14.877 138.984 14.877C137.42 14.877 135.733 13.8639 135.733 11.6379V3.40608C135.734 3.39892 135.734 3.39145 135.733 3.38429V2.9776H132.915V11.6379C132.915 14.7172 135.004 17.8327 138.988 17.8327C141.904 17.8327 145.057 15.8937 145.057 11.6379V2.9776H144.623Z" fill="#095BE8"/>
<path d="M127.433 2.9776V11.2894L118.007 2.9776V7.02999L130.254 17.8327V14.5901V13.7767V2.9776H127.433Z" fill="#011127"/>
<path d="M118.007 17.8617H120.828V12.1789L118.007 9.68793V17.8617Z" fill="#011127"/>
<path d="M15.8065 7.2333L9.29639 3.58397L15.5841 0L22.0905 3.6457L15.8065 7.2333Z" fill="#011127"/>
<path d="M43.6075 20.5706L17.1335 35.64L1.20459 26.4822V8.15925L6.10354 5.36688L12.5407 9.02347L7.60166 11.8413V22.8038L17.1335 28.2832L37.2104 16.8922L43.6075 20.5706Z" fill="#011127"/>
<path d="M43.9428 28.4829L50.431 32.0959L44.1469 35.6799L37.6587 32.0705L43.9428 28.4829Z" fill="#095BE8"/>
<path d="M17.1733 14.6518L42.5976 0L58.5228 9.16145V27.4807L53.6239 30.2767L47.1904 26.6201L52.1258 23.7987V12.8398L42.5976 7.35676L23.5704 18.3302L17.1733 14.6518Z" fill="#095BE8"/>
<path d="M87.5926 32.2957C86.6404 31.7497 85.8964 30.9051 85.4766 29.8936C85.0568 28.8822 84.9849 27.7608 85.2721 26.7043C85.5593 25.6479 86.1894 24.7158 87.0641 24.0536C87.9389 23.3914 89.009 23.0362 90.1077 23.0434C91.2968 23.0388 92.4486 23.4573 93.3554 24.2236L92.3093 25.6216C92.0017 25.3749 91.6574 25.1777 91.2887 25.037C90.9118 24.8923 90.5116 24.8172 90.1077 24.8155C89.5643 24.813 89.0307 24.96 88.5658 25.2403C88.0943 25.5186 87.7046 25.9156 87.4359 26.3914C87.1573 26.8821 87.0109 27.4363 87.0109 28C87.0109 28.5637 87.1573 29.1179 87.4359 29.6086C87.7046 30.0844 88.0943 30.4814 88.5658 30.7597C89.0307 31.04 89.5643 31.187 90.1077 31.1845C90.4997 31.1881 90.8891 31.1192 91.2559 30.9812C91.6496 30.8269 92.0181 30.6152 92.3494 30.353L93.3736 31.7619C92.9328 32.1404 92.4281 32.4379 91.8828 32.6406C91.3218 32.8531 90.7261 32.9602 90.1259 32.9565C89.237 32.9686 88.3615 32.7402 87.5926 32.2957Z" fill="#011127"/>
<path d="M97.1935 32.4554C96.5976 32.1174 96.1146 31.6123 95.8047 31.0029C95.4796 30.345 95.3171 29.6192 95.3309 28.8859V23.2141H97.1826V28.6608C97.1753 29.1248 97.2621 29.5855 97.4377 30.0152C97.5902 30.3873 97.8503 30.7059 98.185 30.9303C98.5455 31.1442 98.9573 31.2571 99.3769 31.2571C99.7965 31.2571 100.208 31.1442 100.569 30.9303C100.904 30.7051 101.165 30.3869 101.32 30.0152C101.497 29.5859 101.584 29.1249 101.575 28.6608V23.2141H103.43V28.8787C103.443 29.6122 103.279 30.338 102.953 30.9957C102.639 31.6047 102.154 32.1094 101.557 32.4481C100.88 32.7959 100.131 32.9773 99.3696 32.9773C98.6086 32.9773 97.8587 32.7959 97.1826 32.4481L97.1935 32.4554Z" fill="#011127"/>
<path d="M106.984 32.5026C106.315 32.2114 105.719 31.7761 105.238 31.2281L106.427 30.0298C106.775 30.4067 107.197 30.7093 107.666 30.9194C108.116 31.1238 108.604 31.2291 109.098 31.2281C109.528 31.2508 109.954 31.1418 110.319 30.9158C110.462 30.8212 110.578 30.6918 110.657 30.5399C110.735 30.388 110.774 30.2187 110.768 30.0479C110.776 29.8237 110.7 29.6045 110.553 29.4343C110.37 29.2426 110.145 29.0948 109.897 29.0022C109.496 28.8419 109.086 28.7061 108.668 28.5955C108.182 28.4655 107.708 28.2905 107.254 28.0726C106.842 27.8655 106.483 27.5675 106.204 27.2011C105.901 26.779 105.749 26.2672 105.774 25.7486C105.769 25.2569 105.908 24.7744 106.175 24.3608C106.442 23.9471 106.825 23.6204 107.276 23.4211C107.839 23.1641 108.454 23.0399 109.073 23.0579C109.71 23.0519 110.342 23.1665 110.936 23.3956C111.502 23.6169 112.021 23.942 112.466 24.3543L111.406 25.6215C111.1 25.354 110.752 25.1404 110.374 24.9897C109.986 24.83 109.57 24.7462 109.149 24.7428C108.882 24.7383 108.617 24.7826 108.366 24.8735C108.156 24.9449 107.968 25.0701 107.823 25.2366C107.695 25.399 107.626 25.6003 107.629 25.8067C107.626 25.9053 107.644 26.0035 107.68 26.0953C107.716 26.1871 107.771 26.2705 107.841 26.3405C108.001 26.4982 108.192 26.6218 108.402 26.7036C108.635 26.798 108.974 26.9142 109.423 27.0668L109.572 27.114C110.142 27.2886 110.694 27.5134 111.223 27.7857C111.635 28 111.992 28.3057 112.266 28.679C112.532 29.0743 112.668 29.543 112.652 30.0189C112.665 30.5714 112.508 31.1147 112.204 31.5767C111.895 32.0286 111.462 32.3827 110.957 32.597C110.383 32.8467 109.761 32.9706 109.135 32.9601C108.394 32.9594 107.661 32.8035 106.984 32.5026Z" fill="#011127"/>
<path d="M118.641 32.7931H116.785V24.9389H113.968V23.2141H121.466V24.9389H118.641V32.7931Z" fill="#011127"/>
<path d="M125.067 32.2956C124.407 31.9118 123.845 31.3824 123.423 30.7481C123.001 30.1138 122.731 29.3916 122.633 28.6369C122.536 27.8823 122.613 27.1153 122.859 26.3951C123.106 25.6749 123.515 25.0206 124.055 24.4826C124.595 23.9445 125.252 23.5371 125.975 23.2916C126.698 23.0461 127.468 22.969 128.225 23.0664C128.983 23.1638 129.708 23.433 130.344 23.8533C130.981 24.2736 131.513 24.8338 131.898 25.4908C132.444 26.4407 132.662 27.5434 132.517 28.6287C132.372 29.714 131.872 30.7215 131.095 31.4957C130.318 32.2699 129.306 32.7677 128.217 32.9123C127.127 33.0569 126.021 32.8402 125.067 32.2956ZM129.124 30.7597C129.595 30.4813 129.985 30.0844 130.254 29.6086C130.529 29.1153 130.673 28.5605 130.673 27.9963C130.673 27.4322 130.529 26.8774 130.254 26.3841C129.984 25.9092 129.593 25.5134 129.12 25.2366C128.656 24.9591 128.124 24.8135 127.582 24.8154C127.04 24.8131 126.508 24.9601 126.044 25.2403C125.571 25.5185 125.18 25.9154 124.91 26.3914C124.635 26.8833 124.491 27.437 124.491 28C124.491 28.563 124.635 29.1166 124.91 29.6086C125.18 30.0845 125.571 30.4814 126.044 30.7597C126.509 31.0378 127.041 31.1847 127.584 31.1847C128.126 31.1847 128.659 31.0378 129.124 30.7597Z" fill="#011127"/>
<path d="M134.978 32.7931V23.2141H138.448C139.332 23.2045 140.203 23.4222 140.978 23.8459C141.729 24.2501 142.358 24.8468 142.8 25.5744C143.238 26.3103 143.469 27.15 143.469 28.0054C143.469 28.8609 143.238 29.7006 142.8 30.4365C142.358 31.1628 141.729 31.7583 140.978 32.1613C140.207 32.5848 139.339 32.8025 138.459 32.7931H134.978ZM138.532 31.0393C139.074 31.0445 139.608 30.908 140.081 30.6435C140.539 30.3866 140.917 30.0099 141.175 29.5541C141.439 29.0791 141.578 28.5449 141.578 28.0018C141.578 27.4587 141.439 26.9245 141.175 26.4495C140.917 25.9937 140.539 25.617 140.081 25.3601C139.603 25.0934 139.062 24.9569 138.514 24.9643H136.837V31.0393H138.532Z" fill="#011127"/>
<path d="M149.427 32.7931H147.575V28.9549L144.244 23.2141H146.391L148.512 27.2083L150.597 23.2141H152.755L149.427 28.9404V32.7931Z" fill="#011127"/>
<path d="M79.4965 27.39H66.7388V28.6536H79.4965V27.39Z" fill="#011127"/>
</svg>
