<svg width="258" height="258" viewBox="0 0 258 258" fill="none" xmlns="http://www.w3.org/2000/svg">
<path d="M162.711 150.572L96 216.944L113.646 234.5L180.357 168.128L162.711 150.572Z" fill="#011127"/>
<path d="M197.172 71.5C230.766 71.5 258 98.5948 258 132.018C258 165.441 230.766 192.535 197.172 192.535C176.424 192.535 158.102 182.198 147.125 166.417L165.275 148.36C171.233 159.851 183.28 167.708 197.172 167.708C216.984 167.708 233.045 151.729 233.045 132.018C233.045 112.307 216.984 96.3279 197.172 96.3279C188.22 96.3279 180.034 99.5902 173.75 104.985L173.664 104.9L137.061 141.318C136.589 138.286 136.345 135.18 136.345 132.018C136.345 98.5948 163.578 71.5 197.172 71.5Z" fill="#011127"/>
<path d="M121.664 225.065V200.239H146.619V225.065H121.664Z" fill="#011127"/>
<path d="M84.8056 158.843L151.563 92.6791L169.221 110.18L102.464 176.344L84.8056 158.843Z" fill="#2762FF"/>
<path d="M84.8056 89.6644L151.563 23.5L169.221 41.0009L102.464 107.166L84.8056 89.6644Z" fill="#2762FF"/>
<path d="M114.527 60.5944V35.8445H139.5V60.5944H114.527Z" fill="#2762FF"/>
<path d="M60.8691 71.8443C81.8775 71.8443 100.402 82.3926 111.341 98.4373L93.1067 116.509C87.2614 104.714 75.0227 96.5945 60.8691 96.5945C41.0439 96.5947 24.9719 112.523 24.9719 132.173C24.9719 151.822 41.0439 167.751 60.8691 167.751C71.1798 167.751 80.4734 163.44 87.0207 156.541L87.5268 157.042L121.141 123.725C121.532 126.486 121.738 129.305 121.738 132.173C121.738 165.491 94.4861 192.5 60.8691 192.5C27.2522 192.5 0 165.491 0 132.173C0 98.8545 27.2522 71.8446 60.8691 71.8443Z" fill="#2762FF"/>
<path d="M158.721 178.679C158.462 178.468 158.211 178.251 157.956 178.036H158.402C158.508 178.251 158.613 178.465 158.721 178.679ZM197.495 71.8446C221.367 71.8446 242.027 85.4669 252 105.294C241.469 96.6603 227.958 91.4706 213.224 91.4706C201.563 91.4706 190.668 94.7229 181.412 100.359C176.938 102.584 172.999 105.707 169.837 109.491C169.622 109.709 169.408 109.931 169.195 110.153L147.849 101.077L145.781 100.349C156.523 83.2373 175.665 71.8446 197.495 71.8446Z" fill="#2762FF"/>
</svg>
