<svg width="113" height="40" viewBox="0 0 113 40" fill="none" xmlns="http://www.w3.org/2000/svg">
<path d="M109.962 30.1656C109.938 29.8503 109.866 29.5466 109.746 29.2544C109.638 28.9622 109.482 28.7114 109.278 28.501C109.085 28.2791 108.845 28.1039 108.557 27.9754C108.28 27.8352 107.968 27.7652 107.619 27.7652C107.259 27.7652 106.929 27.8294 106.628 27.9579C106.34 28.0747 106.088 28.2441 105.872 28.466C105.667 28.6763 105.499 28.9272 105.367 29.2193C105.247 29.5115 105.181 29.8268 105.169 30.1656H109.962ZM105.169 31.4794C105.169 31.8297 105.217 32.1685 105.313 32.4958C105.421 32.8225 105.577 33.1089 105.782 33.354C105.986 33.5996 106.244 33.7981 106.556 33.9499C106.869 34.0898 107.241 34.1599 107.674 34.1599C108.274 34.1599 108.755 34.0374 109.115 33.7923C109.488 33.5352 109.764 33.1556 109.944 32.6534H111.89C111.782 33.144 111.596 33.5818 111.332 33.9672C111.067 34.3526 110.749 34.6799 110.377 34.9485C110.004 35.2056 109.584 35.3983 109.115 35.5266C108.659 35.6669 108.178 35.7371 107.674 35.7371C106.941 35.7371 106.292 35.6198 105.727 35.3863C105.163 35.1527 104.682 34.826 104.286 34.4055C103.901 33.985 103.607 33.4828 103.403 32.8985C103.21 32.3146 103.115 31.6721 103.115 30.9714C103.115 30.3289 103.216 29.7215 103.421 29.1492C103.637 28.5653 103.938 28.0572 104.322 27.625C104.718 27.1812 105.193 26.8308 105.746 26.5738C106.298 26.3168 106.923 26.1883 107.619 26.1883C108.352 26.1883 109.007 26.3402 109.584 26.6439C110.172 26.9359 110.659 27.3272 111.044 27.8178C111.428 28.3083 111.704 28.8748 111.873 29.5173C112.053 30.1478 112.101 30.8018 112.016 31.4794H105.169Z" fill="#011127"/>
<path d="M97.5465 26.4336H99.4747V28.1857H99.5107C99.5711 27.9404 99.6852 27.7009 99.8533 27.4673C100.033 27.2337 100.244 27.0235 100.484 26.8366C100.736 26.638 101.012 26.4804 101.313 26.3636C101.613 26.2468 101.919 26.1883 102.232 26.1883C102.472 26.1883 102.635 26.1942 102.719 26.2059C102.815 26.2176 102.911 26.2292 103.007 26.2409V28.1681C102.862 28.1448 102.713 28.1273 102.556 28.1156C102.412 28.0922 102.268 28.0805 102.124 28.0805C101.776 28.0805 101.445 28.1506 101.132 28.2908C100.832 28.4193 100.568 28.6177 100.34 28.8863C100.111 29.1434 99.9314 29.4644 99.7989 29.8503C99.6669 30.2357 99.6007 30.6793 99.6007 31.1814V35.4915H97.5465V26.4336Z" fill="#011127"/>
<path d="M95.3801 35.4915H93.3619V34.2301H93.3258C93.0733 34.6856 92.6951 35.0537 92.1905 35.3339C91.6977 35.6025 91.193 35.7371 90.6765 35.7371C89.4512 35.7371 88.5625 35.4449 88.0099 34.861C87.4691 34.2652 87.1988 33.3718 87.1988 32.1805V26.4337H89.253V31.9873C89.253 32.7817 89.4092 33.3425 89.7216 33.6693C90.0339 33.9965 90.4724 34.1599 91.0373 34.1599C91.4698 34.1599 91.8302 34.096 92.1183 33.9672C92.4065 33.8389 92.6408 33.6693 92.8212 33.4593C93.0011 33.2373 93.1276 32.9744 93.1998 32.6707C93.2838 32.367 93.3258 32.0402 93.3258 31.6899V26.4337H95.3801V35.4915Z" fill="#011127"/>
<path d="M83.4744 29.4644C83.3904 28.9041 83.1561 28.4835 82.7715 28.2032C82.3993 27.9112 81.9248 27.7652 81.348 27.7652C81.0836 27.7652 80.8013 27.8119 80.5013 27.9053C80.2008 27.9871 79.9245 28.1506 79.6719 28.3959C79.4198 28.6297 79.2097 28.9622 79.0412 29.3947C78.8731 29.8152 78.7891 30.3698 78.7891 31.0589C78.7891 31.4328 78.8311 31.8066 78.9152 32.18C79.0115 32.5539 79.1554 32.8869 79.3477 33.1791C79.5518 33.4708 79.8103 33.7106 80.1227 33.897C80.4351 34.0725 80.8132 34.1599 81.258 34.1599C81.8586 34.1599 82.3514 33.9792 82.7354 33.6169C83.1318 33.255 83.3785 32.7466 83.4744 32.0926H85.5286C85.3368 33.2723 84.8742 34.1777 84.1412 34.8082C83.4205 35.4271 82.4591 35.7371 81.258 35.7371C80.525 35.7371 79.8765 35.6198 79.3116 35.3863C78.759 35.1412 78.2904 34.8139 77.9063 34.4055C77.5218 33.985 77.2272 33.4886 77.0231 32.9162C76.8308 32.3439 76.7349 31.7249 76.7349 31.0589C76.7349 30.3813 76.8308 29.7451 77.0231 29.1492C77.2153 28.5536 77.5035 28.0397 77.8881 27.6075C78.2726 27.1636 78.7471 26.8191 79.3116 26.5738C79.8884 26.3168 80.5611 26.1883 81.3302 26.1883C81.8705 26.1883 82.381 26.2585 82.862 26.3986C83.3543 26.5271 83.7868 26.7257 84.1595 26.9943C84.5435 27.2629 84.8559 27.6017 85.0961 28.0105C85.3368 28.4193 85.4807 28.9041 85.5286 29.4644H83.4744Z" fill="#011127"/>
<path d="M73.569 30.1656C73.5453 29.8503 73.4732 29.5466 73.353 29.2544C73.2448 28.9622 73.0886 28.7114 72.8845 28.501C72.6922 28.2791 72.452 28.1039 72.1633 27.9754C71.887 27.8352 71.5746 27.7652 71.2267 27.7652C70.8658 27.7652 70.5357 27.8294 70.2351 27.9579C69.947 28.0747 69.6949 28.2441 69.4784 28.466C69.2743 28.6763 69.1062 28.9272 68.9737 29.2193C68.8536 29.5115 68.7874 29.8268 68.7755 30.1656H73.569ZM68.7755 31.4794C68.7755 31.8297 68.8235 32.1685 68.9199 32.4958C69.0281 32.8225 69.1843 33.1089 69.3884 33.354C69.5926 33.5996 69.8511 33.7981 70.163 33.9499C70.4754 34.0898 70.848 34.1599 71.2805 34.1599C71.8811 34.1599 72.3615 34.0374 72.7223 33.7923C73.0945 33.5352 73.3708 33.1556 73.5513 32.6534H75.4972C75.389 33.144 75.2031 33.5818 74.9387 33.9672C74.6743 34.3526 74.3559 34.6799 73.9837 34.9485C73.6111 35.2056 73.1904 35.3983 72.7223 35.5266C72.2656 35.6669 71.7852 35.7371 71.2805 35.7371C70.5475 35.7371 69.899 35.6198 69.3341 35.3863C68.7696 35.1527 68.2892 34.826 67.8928 34.4055C67.5082 33.985 67.2136 33.4828 67.0095 32.8985C66.8172 32.3146 66.7213 31.6721 66.7213 30.9714C66.7213 30.3289 66.8236 29.7215 67.0278 29.1492C67.2438 28.5653 67.5443 28.0572 67.9288 27.625C68.3253 27.1812 68.7998 26.8308 69.3524 26.5738C69.905 26.3168 70.5297 26.1883 71.2267 26.1883C71.9592 26.1883 72.6141 26.3402 73.1909 26.6439C73.7791 26.9359 74.266 27.3272 74.6505 27.8178C75.0346 28.3083 75.3109 28.8748 75.4794 29.5173C75.6594 30.1478 75.7078 30.8018 75.6233 31.4794H68.7755Z" fill="#011127"/>
<path d="M57.2529 31.3218C57.2529 31.8009 57.3369 32.2093 57.505 32.5481C57.6731 32.8869 57.9073 33.1671 58.2079 33.3891C58.5084 33.5996 58.8504 33.7572 59.235 33.8625C59.6314 33.9557 60.0579 34.0023 60.5147 34.0023C61.007 34.0023 61.4276 33.9499 61.7761 33.8447C62.1245 33.7279 62.4068 33.5818 62.6228 33.4069C62.8393 33.2315 62.9954 33.033 63.0913 32.811C63.1877 32.5774 63.2357 32.3439 63.2357 32.1104C63.2357 31.6312 63.1215 31.2809 62.8931 31.0589C62.6771 30.8254 62.4364 30.662 62.1725 30.5683C61.7158 30.4049 61.1814 30.253 60.5685 30.1127C59.968 29.9608 59.2231 29.7681 58.3339 29.5346C57.7813 29.3947 57.3187 29.2136 56.9465 28.9916C56.5861 28.758 56.2975 28.501 56.0815 28.2207C55.865 27.9404 55.7088 27.6425 55.6129 27.3272C55.5289 27.0118 55.4869 26.6906 55.4869 26.3636C55.4869 25.7328 55.6188 25.1897 55.8833 24.7342C56.1596 24.2669 56.5199 23.8815 56.9643 23.5778C57.4091 23.2742 57.9133 23.0523 58.4782 22.9121C59.0427 22.7602 59.6136 22.6843 60.1899 22.6843C60.8626 22.6843 61.4933 22.7719 62.082 22.9471C62.6831 23.1106 63.2055 23.3618 63.6499 23.7005C64.1066 24.0392 64.4669 24.4597 64.7314 24.9619C64.9958 25.4525 65.1278 26.0248 65.1278 26.6789H62.8753C62.815 25.873 62.5328 25.3065 62.0281 24.9795C61.5235 24.6407 60.8809 24.4714 60.1 24.4714C59.8355 24.4714 59.5652 24.5006 59.2889 24.559C59.0126 24.6057 58.7605 24.6933 58.5321 24.8218C58.3038 24.9386 58.1115 25.1021 57.9553 25.3123C57.8115 25.5226 57.7393 25.7854 57.7393 26.1007C57.7393 26.5446 57.8772 26.895 58.154 27.152C58.4422 27.3972 58.8143 27.5841 59.2711 27.7126C59.319 27.7243 59.5053 27.7769 59.8296 27.8703C60.1662 27.9521 60.5384 28.0455 60.9472 28.1506C61.3554 28.2557 61.7518 28.3609 62.1364 28.466C62.5328 28.5594 62.815 28.6297 62.9831 28.6763C63.4037 28.8046 63.77 28.98 64.0824 29.202C64.3947 29.4236 64.6533 29.6807 64.8574 29.9729C65.0739 30.253 65.2301 30.5567 65.326 30.884C65.4342 31.2108 65.4881 31.538 65.4881 31.8648C65.4881 32.5659 65.3378 33.1671 65.0378 33.6693C64.7491 34.1599 64.3651 34.5631 63.8842 34.8783C63.4037 35.1936 62.857 35.4214 62.2446 35.5617C61.6317 35.7135 61.007 35.7895 60.3703 35.7895C59.6373 35.7895 58.9468 35.702 58.2978 35.5266C57.6493 35.3512 57.0844 35.0826 56.6039 34.7207C56.1235 34.3584 55.7389 33.8971 55.4508 33.3367C55.1621 32.7644 55.0124 32.0926 55 31.3218H57.2529Z" fill="#011127"/>
<path d="M31.0523 24.1267L18.3354 36.6797L21.6991 40L34.416 27.4471L31.0523 24.1267Z" fill="#011127"/>
<path d="M37.6215 9.17203C44.0253 9.17203 49.2167 14.2964 49.2167 20.6177C49.2167 26.939 44.0253 32.0632 37.6215 32.0632C33.6663 32.0632 30.1737 30.1081 28.0812 27.1236L31.5409 23.7084C32.6767 25.8817 34.9733 27.3677 37.6215 27.3677C41.3981 27.3677 44.4596 24.3456 44.4596 20.6177C44.4596 16.8898 41.3981 13.8677 37.6215 13.8677C35.9149 13.8677 34.3545 14.4847 33.1566 15.505L33.1402 15.489L26.1627 22.3766C26.0728 21.8032 26.0262 21.2158 26.0262 20.6177C26.0262 14.2964 31.2176 9.17203 37.6215 9.17203Z" fill="#011127"/>
<path d="M23.2277 38.2156V33.5203H27.9848V38.2156H23.2277Z" fill="#011127"/>
<path d="M16.1549 25.6778L28.8717 13.1249L32.2355 16.4452L19.5187 28.9981L16.1549 25.6778Z" fill="#2762FF"/>
<path d="M16.1549 12.5529L28.8717 0L32.2355 3.32033L19.5187 15.8733L16.1549 12.5529Z" fill="#2762FF"/>
<path d="M21.8166 7.03767V2.34204H26.5737V7.03767H21.8166Z" fill="#2762FF"/>
<path d="M11.5951 9.17203C15.5971 9.17203 19.1259 11.1733 21.2097 14.2173L17.7362 17.6459C16.6227 15.4082 14.2913 13.8677 11.5951 13.8677C7.81858 13.8677 4.75698 16.8898 4.75698 20.6177C4.75698 24.3456 7.81858 27.3677 11.5951 27.3677C13.5593 27.3677 15.3296 26.5498 16.5768 25.2409L16.6732 25.336L23.0766 19.0151C23.151 19.5388 23.1903 20.0737 23.1903 20.6177C23.1903 26.939 17.999 32.0632 11.5951 32.0632C5.19136 32.0632 0 26.939 0 20.6177C0 14.2965 5.19136 9.17208 11.5951 9.17203Z" fill="#2762FF"/>
<path d="M30.2353 29.441C30.186 29.401 30.138 29.3598 30.0896 29.319H30.1746C30.1947 29.3598 30.2147 29.4005 30.2353 29.441ZM37.6215 9.17208C42.169 9.17208 46.1045 11.7566 48.0043 15.5183C45.9981 13.8802 43.4243 12.8956 40.6177 12.8956C38.3964 12.8956 36.3209 13.5126 34.5577 14.582C33.7055 15.0041 32.9552 15.5966 32.3529 16.3145C32.3118 16.3559 32.2711 16.3979 32.2305 16.44L28.1643 14.7181L27.7702 14.5799C29.8165 11.3335 33.463 9.17208 37.6215 9.17208Z" fill="#2762FF"/>
<path d="M55 4H57.2332V9.65832L62.9143 4H65.6656L60.574 8.96192L66.0229 16.4309H63.2359L59.0554 10.494L57.2332 12.2524V16.4309H55V4Z" fill="#011127"/>
<path d="M73.2864 11.1382C73.2626 10.8248 73.1911 10.523 73.072 10.2329C72.9648 9.94269 72.81 9.69314 72.6075 9.48422C72.4169 9.26369 72.1787 9.08959 71.8929 8.96192C71.6189 8.82263 71.3093 8.75299 70.9639 8.75299C70.6066 8.75299 70.2791 8.81683 69.9813 8.94451C69.6955 9.06057 69.4453 9.22887 69.231 9.4494C69.0285 9.65832 68.8617 9.90787 68.7307 10.198C68.6116 10.4882 68.5461 10.8016 68.5342 11.1382H73.2864ZM68.5342 12.444C68.5342 12.7922 68.5818 13.1288 68.6771 13.4538C68.7843 13.7787 68.9392 14.0631 69.1416 14.3069C69.3441 14.5506 69.6002 14.7479 69.9098 14.8988C70.2195 15.0381 70.5887 15.1077 71.0175 15.1077C71.613 15.1077 72.0894 14.9859 72.4467 14.7421C72.8159 14.4868 73.0899 14.1095 73.2685 13.6104H75.198C75.0908 14.0979 74.9062 14.5332 74.6441 14.9162C74.3821 15.2992 74.0665 15.6242 73.6973 15.8912C73.3281 16.1465 72.9112 16.338 72.4467 16.4657C71.9941 16.605 71.5177 16.6746 71.0175 16.6746C70.291 16.6746 69.6478 16.5586 69.088 16.3264C68.5283 16.0943 68.0518 15.7693 67.6588 15.3515C67.2777 14.9336 66.9859 14.4345 66.7834 13.8542C66.5928 13.2738 66.4976 12.6355 66.4976 11.9391C66.4976 11.3007 66.5988 10.6971 66.8013 10.1284C67.0157 9.54806 67.3134 9.04316 67.6945 8.61371C68.0876 8.17265 68.558 7.82445 69.1059 7.5691C69.6538 7.31375 70.2731 7.18607 70.9639 7.18607C71.6904 7.18607 72.3395 7.33696 72.9112 7.63874C73.4948 7.92891 73.9772 8.31774 74.3583 8.80522C74.7394 9.29271 75.0134 9.85564 75.1801 10.494C75.3587 11.1208 75.4064 11.7708 75.323 12.444H68.5342Z" fill="#011127"/>
<path d="M75.853 7.42982H78.0861L80.4979 14.1502H80.5337L82.874 7.42982H85L81.4091 16.9184C81.2423 17.3246 81.0756 17.7135 80.9088 18.0849C80.754 18.4563 80.5575 18.7813 80.3193 19.0598C80.093 19.35 79.8072 19.5764 79.4618 19.7388C79.1164 19.9129 78.6757 20 78.1397 20C77.6633 20 77.1929 19.9652 76.7284 19.8955V18.2242C76.8951 18.2474 77.0559 18.2706 77.2107 18.2938C77.3656 18.3286 77.5264 18.346 77.6931 18.346C77.9313 18.346 78.1278 18.317 78.2827 18.259C78.4375 18.2009 78.5625 18.1139 78.6578 17.9978C78.765 17.8934 78.8543 17.7657 78.9258 17.6148C78.9973 17.4639 79.0628 17.2898 79.1223 17.0925L79.3546 16.3961L75.853 7.42982Z" fill="#011127"/>
</svg>
