<svg width="353" height="72" viewBox="0 0 353 72" fill="none" xmlns="http://www.w3.org/2000/svg">
<path d="M100.685 53.5814L86.4854 37.6074V53.5814H81.9834V18.5693H86.4854V34.7944L100.735 18.5693H106.425L90.7898 36.1005L106.573 53.5814H100.685ZM137.824 38.7628C137.824 39.6335 137.775 40.5544 137.676 41.5256H116.005C116.17 44.2381 117.077 46.3647 118.726 47.9051C120.408 49.4121 122.437 50.1656 124.812 50.1656C126.758 50.1656 128.374 49.7135 129.66 48.8093C130.98 47.8716 131.903 46.6326 132.431 45.0921H137.28C136.554 47.7377 135.103 49.8977 132.926 51.5721C130.749 53.213 128.044 54.0335 124.812 54.0335C122.239 54.0335 119.93 53.4474 117.885 52.2753C115.873 51.1033 114.29 49.4456 113.135 47.3023C111.981 45.1256 111.404 42.614 111.404 39.7674C111.404 36.9209 111.964 34.4261 113.086 32.2828C114.207 30.1395 115.774 28.4986 117.786 27.36C119.831 26.1879 122.173 25.6019 124.812 25.6019C127.385 25.6019 129.66 26.1712 131.64 27.3098C133.619 28.4484 135.136 30.0223 136.191 32.0316C137.28 34.0074 137.824 36.2512 137.824 38.7628ZM133.173 37.8084C133.173 36.067 132.794 34.5767 132.035 33.3377C131.277 32.0651 130.238 31.1107 128.918 30.4744C127.632 29.8047 126.197 29.4698 124.614 29.4698C122.338 29.4698 120.392 30.2065 118.776 31.68C117.192 33.1535 116.285 35.1963 116.054 37.8084H133.173ZM168.604 26.054L152.277 66.5414H147.626L152.97 53.28L142.035 26.054H147.033L155.543 48.3572L163.954 26.054H168.604Z" fill="#182542"/>
<path d="M186.143 53.933C183.735 53.933 181.558 53.5144 179.612 52.6772C177.699 51.84 176.182 50.6344 175.06 49.0605C173.939 47.4865 173.362 45.6279 173.329 43.4847H180.75C180.849 44.9247 181.344 46.0633 182.234 46.9005C183.158 47.7377 184.411 48.1563 185.995 48.1563C187.611 48.1563 188.881 47.7712 189.804 47.0009C190.728 46.1972 191.19 45.1591 191.19 43.8865C191.19 42.8484 190.876 41.9944 190.25 41.3247C189.623 40.6549 188.831 40.1358 187.875 39.7675C186.951 39.3656 185.665 38.9302 184.016 38.4614C181.773 37.7916 179.942 37.1386 178.524 36.5023C177.138 35.8326 175.934 34.8447 174.912 33.5386C173.922 32.1991 173.428 30.4242 173.428 28.214C173.428 26.1377 173.939 24.3293 174.961 22.7888C175.984 21.2484 177.419 20.0763 179.266 19.2726C181.113 18.4354 183.224 18.0168 185.599 18.0168C189.161 18.0168 192.047 18.9042 194.257 20.6791C196.5 22.4205 197.737 24.8651 197.968 28.013H190.349C190.283 26.8075 189.771 25.8195 188.815 25.0493C187.891 24.2456 186.654 23.8437 185.104 23.8437C183.752 23.8437 182.663 24.1954 181.839 24.8986C181.047 25.6019 180.651 26.6233 180.651 27.9628C180.651 28.9005 180.948 29.6875 181.542 30.3237C182.168 30.9265 182.927 31.4288 183.818 31.8307C184.741 32.1991 186.028 32.6344 187.677 33.1368C189.92 33.8065 191.75 34.4763 193.169 35.1461C194.587 35.8158 195.808 36.8205 196.83 38.16C197.853 39.4995 198.364 41.2577 198.364 43.4344C198.364 45.3098 197.886 47.0512 196.929 48.6586C195.972 50.2661 194.571 51.5554 192.724 52.5265C190.876 53.4642 188.683 53.933 186.143 53.933ZM231.334 39.0642C231.334 40.0688 231.268 40.973 231.136 41.7768H211.098C211.263 43.7861 211.956 45.36 213.176 46.4986C214.397 47.6372 215.898 48.2065 217.679 48.2065C220.252 48.2065 222.082 47.0847 223.171 44.8409H230.642C229.85 47.52 228.333 49.7302 226.09 51.4716C223.847 53.1795 221.093 54.0335 217.827 54.0335C215.188 54.0335 212.814 53.4475 210.703 52.2754C208.625 51.0698 206.992 49.3786 205.804 47.2019C204.65 45.0251 204.073 42.5135 204.073 39.667C204.073 36.787 204.65 34.2586 205.804 32.0819C206.959 29.9051 208.575 28.2307 210.653 27.0586C212.731 25.8865 215.122 25.3005 217.827 25.3005C220.433 25.3005 222.758 25.8698 224.803 27.0084C226.881 28.147 228.481 29.7712 229.603 31.8809C230.757 33.9572 231.334 36.3516 231.334 39.0642ZM224.16 37.0549C224.127 35.2465 223.484 33.8065 222.231 32.7349C220.977 31.6298 219.443 31.0772 217.629 31.0772C215.914 31.0772 214.463 31.613 213.275 32.6847C212.121 33.7228 211.412 35.1795 211.148 37.0549H224.16ZM236.093 39.667C236.093 36.787 236.67 34.2754 237.825 32.1321C238.979 29.9554 240.579 28.2809 242.624 27.1088C244.669 25.9033 247.011 25.3005 249.65 25.3005C253.047 25.3005 255.851 26.1712 258.061 27.9126C260.304 29.6205 261.805 32.0316 262.563 35.1461H255.092C254.696 33.9405 254.02 33.0028 253.064 32.333C252.14 31.6298 250.986 31.2782 249.6 31.2782C247.621 31.2782 246.055 32.0149 244.9 33.4884C243.746 34.9284 243.168 36.9879 243.168 39.667C243.168 42.3126 243.746 44.3721 244.9 45.8456C246.055 47.2856 247.621 48.0056 249.6 48.0056C252.404 48.0056 254.235 46.733 255.092 44.1879H262.563C261.805 47.2019 260.304 49.5963 258.061 51.3712C255.818 53.1461 253.014 54.0335 249.65 54.0335C247.011 54.0335 244.669 53.4475 242.624 52.2754C240.579 51.0698 238.979 49.3954 237.825 47.2521C236.67 45.0754 236.093 42.547 236.093 39.667ZM294.999 25.7526V53.5814H288.022V50.0651C287.132 51.2707 285.961 52.2251 284.509 52.9284C283.091 53.5982 281.541 53.933 279.859 53.933C277.715 53.933 275.818 53.4809 274.169 52.5768C272.52 51.6391 271.217 50.2828 270.26 48.5079C269.337 46.6995 268.875 44.5563 268.875 42.0781V25.7526H275.802V41.0735C275.802 43.2837 276.346 44.9916 277.434 46.1972C278.523 47.3693 280.007 47.9554 281.887 47.9554C283.8 47.9554 285.301 47.3693 286.39 46.1972C287.478 44.9916 288.022 43.2837 288.022 41.0735V25.7526H294.999ZM310.244 30.0726C311.135 28.5991 312.289 27.4437 313.707 26.6065C315.159 25.7693 316.808 25.3507 318.655 25.3507V32.7349H316.824C314.647 32.7349 312.998 33.254 311.877 34.2921C310.788 35.3302 310.244 37.1386 310.244 39.7172V53.5814H303.317V25.7526H310.244V30.0726ZM350.285 39.0642C350.285 40.0688 350.219 40.973 350.087 41.7768H330.049C330.214 43.7861 330.906 45.36 332.127 46.4986C333.347 47.6372 334.848 48.2065 336.629 48.2065C339.202 48.2065 341.033 47.0847 342.121 44.8409H349.592C348.8 47.52 347.283 49.7302 345.04 51.4716C342.797 53.1795 340.043 54.0335 336.778 54.0335C334.139 54.0335 331.764 53.4475 329.653 52.2754C327.575 51.0698 325.942 49.3786 324.755 47.2019C323.6 45.0251 323.023 42.5135 323.023 39.667C323.023 36.787 323.6 34.2586 324.755 32.0819C325.909 29.9051 327.525 28.2307 329.603 27.0586C331.681 25.8865 334.073 25.3005 336.778 25.3005C339.383 25.3005 341.709 25.8698 343.754 27.0084C345.832 28.147 347.432 29.7712 348.553 31.8809C349.707 33.9572 350.285 36.3516 350.285 39.0642ZM343.111 37.0549C343.078 35.2465 342.434 33.8065 341.181 32.7349C339.928 31.6298 338.394 31.0772 336.58 31.0772C334.864 31.0772 333.413 31.613 332.226 32.6847C331.071 33.7228 330.362 35.1795 330.098 37.0549H343.111Z" fill="#2774CE"/>
<path fill-rule="evenodd" clip-rule="evenodd" d="M23.7012 23.6919C17.0057 30.4897 17.0057 41.511 23.7012 48.3088C30.3967 55.1066 41.2523 55.1066 47.9477 48.3088L60.7091 61.2651C46.9657 75.2184 24.6832 75.2184 10.9398 61.2651C-2.80351 47.3118 -2.80351 24.689 10.9398 10.7356C24.6832 -3.2177 46.9657 -3.2177 60.7091 10.7356L47.9477 23.6919C41.2523 16.8941 30.3967 16.8941 23.7012 23.6919Z" fill="#2774CE"/>
<path d="M31.4955 43.3158L33.9911 35.4097C33.0627 34.7377 32.4571 33.6361 32.4571 32.3904C32.4571 30.3435 34.0913 28.6842 36.1074 28.6842C38.1235 28.6843 39.7576 30.3436 39.7578 32.3904C39.7578 33.631 39.1569 34.7288 38.235 35.4016L40.7321 43.3158H31.4955Z" fill="#182542"/>
</svg>
