<svg width="75" height="75" viewBox="0 0 75 75" fill="none" xmlns="http://www.w3.org/2000/svg">
<g clip-path="url(#clip0_676_7)">
<rect width="75" height="75" fill="url(#paint0_linear_676_7)"/>
<path d="M46.548 43.548C44.2093 45.8868 41.2295 47.4795 37.9855 48.1247C34.7416 48.77 31.3791 48.4388 28.3234 47.1731C25.2677 45.9074 22.6559 43.7639 20.8183 41.0139C18.9808 38.2638 18 35.0305 18 31.723C18 28.4155 18.9808 25.1823 20.8183 22.4322C22.6559 19.6821 25.2677 17.5387 28.3234 16.273C31.3791 15.0072 34.7416 14.6761 37.9855 15.3213C41.2295 15.9666 44.2093 17.5593 46.548 19.8981L40.399 26.0471C39.2764 24.9244 37.8461 24.1599 36.289 23.8502C34.7319 23.5405 33.118 23.6995 31.6512 24.307C30.1845 24.9146 28.9308 25.9434 28.0488 27.2634C27.1668 28.5835 26.696 30.1354 26.696 31.723C26.696 33.3106 27.1668 34.8626 28.0488 36.1826C28.9308 37.5027 30.1845 38.5315 31.6512 39.1391C33.118 39.7466 34.7319 39.9056 36.289 39.5959C37.8461 39.2861 39.2764 38.5216 40.399 37.399L46.548 43.548Z" fill="white"/>
<path d="M28.3428 32.0319C30.6815 29.6932 33.6613 28.1005 36.9052 27.4552C40.1492 26.8099 43.5116 27.1411 46.5674 28.4068C49.6231 29.6726 52.2349 31.816 54.0724 34.5661C55.91 37.3162 56.8908 40.5494 56.8908 43.8569C56.8908 47.1644 55.91 50.3976 54.0724 53.1477C52.2349 55.8978 49.6231 58.0413 46.5674 59.307C43.5116 60.5727 40.1492 60.9039 36.9052 60.2586C33.6613 59.6134 30.6815 58.0207 28.3428 55.6819L34.4917 49.5329C35.6143 50.6555 37.0446 51.42 38.6017 51.7297C40.1588 52.0395 41.7728 51.8805 43.2395 51.273C44.7063 50.6654 45.96 49.6366 46.842 48.3165C47.724 46.9965 48.1948 45.4445 48.1948 43.8569C48.1948 42.2693 47.724 40.7174 46.842 39.3973C45.96 38.0773 44.7063 37.0484 43.2395 36.4409C41.7728 35.8333 40.1588 35.6744 38.6017 35.9841C37.0446 36.2938 35.6143 37.0583 34.4917 38.1809L28.3428 32.0319Z" fill="white"/>
</g>
<defs>
<linearGradient id="paint0_linear_676_7" x1="71.0938" y1="-1.56191e-06" x2="1.24952e-06" y2="71.875" gradientUnits="userSpaceOnUse">
<stop stop-color="#487AFF"/>
<stop offset="1" stop-color="#2B65FF"/>
</linearGradient>
<clipPath id="clip0_676_7">
<rect width="75" height="75" rx="18" fill="white"/>
</clipPath>
</defs>
</svg>
